# xmcd
#
# Track frame offsets:
#	150
#	12644
#	25155
#	37101
#	49711
#	61388
#	73132
#	78172
#	88834
#	97095
#	106188
#	115954
#	133602
#	144243
#	155231
#	166006
#	177623
#	183842
#	195889
#	204649
#
# Disc length: 2912 seconds
#
# Revision: 1
# Processed by: cddbd v1.5.2PL0 Copyright (c) Steve Scherf et al.
# Submitted via: audiograbber 1.83.01
#
DISCID=170b5e14
DTITLE=Hank Williams - The Complete Collection - The Many Sides Of
DYEAR=1900
DGENRE=
TTITLE0=I Saw the Light
TTITLE1=Dear Brother
TTITLE2=Low Down Blues
TTITLE3=There's a Tear in my Beer
TTITLE4=A Teardrop on a Rose
TTITLE5=Weary Blues from Waitin'
TTITLE6=The Alabama Waltz
TTITLE7=The Log Train
TTITLE8=Fool About You
TTITLE9=Alone and Forsaken
TTITLE10=Rockin' Chair Money
TTITLE11=Cool Water
TTITLE12=Tennessee Border
TTITLE13=First Year Blues
TTITLE14=Swing Wide Your Gate of Love
TTITLE15=Dixie Cannonball
TTITLE16=Sundown and Sorrow
TTITLE17=The Old Home
TTITLE18=California Zephyr
TTITLE19=Little Paper Boy
EXTD=Disc 3 of 3
EXTT0=
EXTT1=
EXTT2=
EXTT3=
EXTT4=
EXTT5=
EXTT6=
EXTT7=
EXTT8=
EXTT9=
EXTT10=
EXTT11=
EXTT12=
EXTT13=
EXTT14=
EXTT15=
EXTT16=
EXTT17=
EXTT18=
EXTT19=
PLAYORDER=
